<svg viewBox="0 0 1017 205" xmlns="http://www.w3.org/2000/svg"><title>let’s talk</title><path d="M41.57 162.3L63.93 2.66 23.11 7.08 1.01 163.86c-3.64 26.52 8.32 40.56 31.46 40.56 8.84 0 18.46-1.82 26-5.2l-4.68-28.86c-2.34.78-4.94 1.56-6.76 1.56-4.42 0-6.5-2.34-5.46-9.62zm159.9-67.08c0-20.8-17.42-37.7-50.96-37.7-57.98 0-78.26 50.96-78.26 88.4 0 35.1 19.76 58.5 60.06 58.5 21.32 0 39.78-7.54 54.86-18.46l-14.56-24.44c-12.74 8.58-23.4 12.74-35.1 12.74-13.52 0-23.66-5.98-24.7-24.44 43.42-4.42 88.66-15.86 88.66-54.6zm-86.84 29.64c3.64-19.76 12.74-40.04 31.98-40.04 10.92 0 14.04 6.5 14.04 12.74 0 11.7-11.44 24.7-46.02 27.3zm146.12 29.38l8.84-63.7h27.04l8.06-28.6h-31.2l4.94-34.58-34.84 3.9-8.58 30.68h-20.8l-3.9 28.6h18.98l-9.1 63.7c-4.42 32.24 8.06 49.92 38.48 50.18 11.7 0 26.26-3.38 37.96-10.14l-10.92-27.04c-5.46 3.12-10.66 4.42-15.6 4.42-8.06 0-11.18-4.16-9.36-17.42zM353.57.84c-13.26 0-23.66 9.88-23.66 22.62 0 7.02 2.86 11.96 7.28 15.6L320.55 80.4h21.06l23.14-37.18c5.98-9.88 8.58-15.86 8.58-23.92 0-10.66-8.32-18.46-19.76-18.46zm86.84 56.68c-38.74 0-59.02 20.8-59.02 44.2 0 19.5 11.96 32.5 35.1 40.3 21.84 7.54 27.3 10.14 27.3 19.24 0 7.54-6.76 13.78-21.58 13.78-15.08 0-27.82-6.5-36.4-15.08l-21.06 21.84c11.96 13 32.76 22.62 57.46 22.62 42.9 0 61.88-22.36 61.88-47.84 0-22.1-12.48-34.58-35.88-42.12-21.06-6.76-26.52-9.1-26.52-16.38 0-7.02 5.98-11.18 18.72-11.18 10.4 0 22.88 3.64 31.72 11.18l18.2-22.88c-11.7-10.66-31.2-17.68-49.92-17.68zm167.44 96.72l8.84-63.7h27.04l8.06-28.6h-31.2l4.94-34.58-34.84 3.9-8.58 30.68h-20.8l-3.9 28.6h18.98l-9.1 63.7c-4.42 32.24 8.06 49.92 38.48 50.18 11.7 0 26.26-3.38 37.96-10.14l-10.92-27.04c-5.46 3.12-10.66 4.42-15.6 4.42-8.06 0-11.18-4.16-9.36-17.42zm124.54-96.72c-58.5 0-79.3 52.52-79.3 92.04 0 33.28 15.34 54.86 45.24 54.86 17.94 0 31.2-9.88 40.82-23.66 3.9 14.82 16.64 21.58 31.98 22.88l11.44-26.52c-4.68-1.82-7.28-4.42-7.28-10.92 0-1.56.26-3.64.52-5.72l13.26-88.4c-18.98-10.4-38.48-14.56-56.68-14.56zm-1.04 29.12c5.98 0 10.14.78 15.34 2.6l-9.88 65.78c-7.8 11.96-16.12 19.24-26 19.24-9.1 0-15.86-5.46-15.86-24.96 0-26.78 9.36-62.66 36.4-62.66zm114.4 75.66L868.11 2.66l-40.82 4.42-22.1 156.78c-3.64 26.52 8.32 40.56 31.46 40.56 8.84 0 18.46-1.82 26-5.2l-4.68-28.86c-2.34.78-4.94 1.56-6.76 1.56-4.42 0-6.5-2.34-5.46-9.62zm88.14-82.42l10.66-77.22-40.82 4.42L876.69 200h40.56l11.96-85.54c11.18-20.02 23.92-28.34 34.32-28.34 7.54 0 11.96 3.9 11.96 11.44 0 14.56-9.62 26-40.04 35.88L960.41 200h44.46l-25.74-61.36c25.48-10.14 37.44-26.78 37.44-48.62 0-18.98-14.3-32.5-36.92-32.5-16.64 0-31.72 6.5-45.76 22.36z" fill="#000" fill-rule="evenodd" opacity=".1"/></svg>
