<svg viewBox="0 0 415 231" xmlns="http://www.w3.org/2000/svg"><title>AFFLECTO LOGO</title><defs><linearGradient x1="17.05%" y1="66.294%" x2="138.505%" y2="-7.402%" id="a"><stop stop-color="#F7BF3B" offset="4%"/><stop stop-color="#F7BF3B" stop-opacity=".6" offset="100%"/></linearGradient><linearGradient x1="22106%" y1="3322.873%" x2="28972%" y2="2076.367%" id="b"><stop stop-color="#F7BF3B" offset="4%"/><stop stop-color="#F7BF3B" stop-opacity=".6" offset="100%"/></linearGradient></defs><g fill="none" fill-rule="evenodd"><path d="M54.915 152.02v50.191c0 .773-.625 1.399-1.396 1.399h-5.155a1.397 1.397 0 0 1-1.396-1.399v-.856a1.395 1.395 0 0 0-2.087-1.218c-5.923 3.536-11.39 5.225-18.043 5.225C10.724 205.37 0 193.812 0 176.424c.118-17.042 10.371-28.474 27.27-28.474 9.774 0 16.301.786 26.468 2.695.67.117 1.164.693 1.177 1.375zM7.923 176.652c0 12.957 7.689 21.827 19.809 21.827 6.213 0 11.666-1.65 18.577-6.113.403-.263.648-.712.651-1.194v-33.62a1.421 1.421 0 0 0-1.208-1.391c-5.77-.896-11.6-1.342-17.44-1.336-13.407 0-20.389 8.989-20.389 21.827zM164.549 203.618h-5.13a1.397 1.397 0 0 1-1.397-1.399v-75.31a1.43 1.43 0 0 0-.832-1.289c-4.064-1.83-7.594-2.648-13.266-2.648-10.724 0-16.2 6.066-16.2 16.924v8.408c0 .772.625 1.398 1.397 1.398h18.647a1.395 1.395 0 0 1 1.397 1.399v4.431c0 .773-.626 1.399-1.397 1.399h-18.647c-.772 0-1.397.626-1.397 1.398v43.882c0 .773-.625 1.399-1.396 1.399h-5.13a1.397 1.397 0 0 1-1.397-1.399V158.33c0-.772-.625-1.398-1.397-1.398H88.1c-.771 0-1.396.626-1.396 1.398v43.882c0 .773-.625 1.399-1.397 1.399h-5.13a1.397 1.397 0 0 1-1.397-1.399V158.33c0-.772-.625-1.398-1.396-1.398H66.894a1.397 1.397 0 0 1-1.396-1.399v-4.44c0-.772.625-1.398 1.396-1.398h10.481a1.395 1.395 0 0 0 1.397-1.398v-7.936c0-16.225 9.092-24.624 24.24-24.624 8.23 0 13.91 2.129 20.9 6.576.583.37 1.345.274 1.82-.228 4.08-4.203 10.104-6.356 17.957-6.356a34.738 34.738 0 0 1 13.65 2.79c1.534.628 3.162.997 4.817 1.091l2.471.134a1.398 1.398 0 0 1 1.326 1.398v81.07a1.4 1.4 0 0 1-1.404 1.407zm-44.717-63.957a33.772 33.772 0 0 1 1.326-9.649 1.415 1.415 0 0 0-.541-1.571c-5.492-3.78-10.56-5.5-17.102-5.5-11.187 0-16.78 5.835-16.78 17.505v7.858c0 .772.624 1.398 1.396 1.398h30.297c.771 0 1.396-.626 1.396-1.398v-8.643h.008zM232.565 173.501a38.386 38.386 0 0 1-.189 4.935 1.405 1.405 0 0 1-1.388 1.249H188.97a1.388 1.388 0 0 0-1.38 1.571c1.812 10.215 9.32 16.838 20.624 16.838 6.417 0 11.72-1.013 18.373-2.671a1.402 1.402 0 0 1 1.718 1.084l.784 3.834a1.414 1.414 0 0 1-.988 1.619c-6.59 1.925-12.403 3.37-20.083 3.37-18.412 0-29.137-12.02-29.137-28.827 0-17.286 11.65-28.592 27.968-28.592 15.117.031 25.598 9.837 25.716 25.59zm-43.885-.117h35.185a1.395 1.395 0 0 0 1.404-1.478c-.785-10.905-7.963-17.427-18.342-17.427-10.896 0-18.184 6.797-19.612 17.349a1.392 1.392 0 0 0 1.365 1.556zM292.963 155.571a1.399 1.399 0 0 1-1.702 1.108 70.541 70.541 0 0 0-15.337-2.098c-13.635 0-22.61 8.753-22.61 21.945 0 13.193 8.975 21.828 21.676 21.828 4.44 0 10.983-1.108 17.212-2.664a1.387 1.387 0 0 1 1.71 1.084l.785 3.929a1.399 1.399 0 0 1-.965 1.61 72.338 72.338 0 0 1-18.953 3.018c-17.361 0-29.482-11.44-29.482-28.946s12.207-28.67 30.156-28.67c5.842.05 11.65.904 17.26 2.537a1.39 1.39 0 0 1 .94 1.572l-.69 3.747zM346.223 202.565a1.398 1.398 0 0 1-1.067 1.571 43.687 43.687 0 0 1-10.74 1.218c-12.348 0-18.294-6.419-18.294-20.546v-26.479c0-.772-.625-1.398-1.397-1.398h-9.555a1.397 1.397 0 0 1-1.396-1.399v-4.44c0-.772.625-1.398 1.396-1.398h9.555c.772 0 1.397-.626 1.397-1.398v-19.847c0-.773.625-1.399 1.396-1.399h5.123c.771 0 1.396.626 1.396 1.399v19.839c0 .772.626 1.398 1.397 1.398h16.435c.771 0 1.396.627 1.396 1.399v4.431c0 .773-.625 1.399-1.396 1.399h-16.42c-.77 0-1.396.626-1.396 1.399v25.795c0 9.687 3.264 14.001 11.658 14.001a56.297 56.297 0 0 0 8.292-.715c.75-.1 1.444.415 1.569 1.163l.651 4.007zM409.014 154.047c14.396 28.883-.525 51.433-24.366 51.433-17.26 0-29.482-11.676-29.482-29.071 0-24.358 24.994-37.597 53.385-22.841.194.116.354.281.463.48zm-3.044 22.37c0-12.957-8.739-21.474-21.322-21.474-12.584 0-21.33 8.486-21.33 21.481 0 12.996 8.856 21.827 21.322 21.827s21.33-8.76 21.33-21.827v-.008z" fill="#FFF"/><path d="M208.826 222.074c-.047 2.742-4.48 4.88-7.767 4.817a4.962 4.962 0 0 1-4.864-5.052c.047-2.743 2.22-4.668 5.045-4.872 2.824-.204 7.633 2.365 7.586 5.107z" fill="#F7BF3B"/><path d="M210.567 59.321c4.205 9.068-6.888 23.171-17.76 28.231a18.018 18.018 0 0 1-13.824.599 18.054 18.054 0 0 1-10.182-9.383c-4.205-9.067-.173-18.857 8.77-24.043 8.638-4.997 28.752-4.44 32.996 4.596z" fill="url(#a)"/><path d="M227.936 13.805A19.945 19.945 0 0 0 210.304.743a19.937 19.937 0 0 0-18.949 11.058 19.997 19.997 0 0 0 2.652 21.804 27.218 27.218 0 0 0 2.165 2.726 28.948 28.948 0 0 0 5.938 4.204c19.84 10.89 20.9 12.155 17.048 35.884-.196 1.186-1.287 6.686-1.138 7.684a14.784 14.784 0 0 0 10.559 14.272 14.753 14.753 0 0 0 16.627-6.182 14.805 14.805 0 0 0-1.297-17.715 18.643 18.643 0 0 0-1.954-2.617c-1.153-1.359-14.819-18.071-13.336-41.815.14-2.255.588-4.212.682-6.042.027-1.16-.02-2.32-.141-3.473a19.922 19.922 0 0 0-1.224-6.726z" fill="url(#b)"/><path fill="#F7BF3B" d="M8.77 222.294l-.494 1.721-.494-1.72-2.157-6.82H1.334v13.2h2.87v-8.919l.652 2.318 2.134 6.6h2.22l2.173-6.6.69-2.341v8.941h3.029v-13.2h-4.213zM18.804 228.674h8.881v-2.655h-5.719v-3.135h3.993v-2.059h-3.993v-2.797h5.719v-2.554h-8.88zM36.173 215.474H30.91v13.169h5.264c3.523 0 5.123-1.902 5.123-4.62v-3.842c0-2.687-1.6-4.707-5.123-4.707zm1.938 8.557c0 1.383-.73 2.098-2.173 2.098H34.07v-8.117h1.86c1.443 0 2.172.715 2.172 2.098v3.929l.008-.008zM44.677 215.474h3.162v13.192h-3.162zM54.429 215.474l-3.923 13.192h2.918l.785-2.655h3.68l.784 2.655h3.248l-4.025-13.192h-3.467zm.36 8.36l1.287-4.777 1.247 4.777H54.79zM77.5 222.294l-.494 1.721-.494-1.72-2.157-6.82h-4.291v13.2h2.87v-8.919l.652 2.318 2.134 6.6h2.212l2.181-6.6.69-2.341v8.941h3.029v-13.2h-4.213zM90.421 215.474L86.5 228.666h2.934l.784-2.655h3.68l.784 2.655h3.248l-3.977-13.192h-3.53zm.361 8.36l1.287-4.777 1.247 4.777h-2.534zM110.3 224.644a2.254 2.254 0 0 0-2.118-2.358 2.356 2.356 0 0 0 2.08-2.537v-.928c0-1.98-1.248-3.331-4.017-3.331h-5.735v13.153h3.138v-5.312h2.095a1.238 1.238 0 0 1 1.443 1.368v1.964c0 1.226.432 2.043 1.483 2.043h2.22v-.613a1.99 1.99 0 0 1-.612-1.572v-1.885l.024.008zm-3.137-4.518c0 .833-.455 1.265-1.42 1.265h-2.04v-3.528h2.095c1.012 0 1.365.48 1.365 1.186v1.077zM124.343 215.474h-3.365l-4.017 5.987v-5.987h-3.138v13.169h3.138v-3.607l1.287-1.681 2.808 5.288h3.42s-3.86-7.41-4.071-7.63l3.938-5.539zM127.214 228.674h8.889v-2.655h-5.72v-3.135h3.994v-2.059h-3.993v-2.797h5.719v-2.554h-8.889zM138.59 218.067h3.506v10.607h3.162v-10.607h3.522v-2.593h-10.19zM151.73 215.474h3.162v13.192h-3.162zM166.126 223.08l-1.005-1.642-3.836-5.964h-2.69v13.2h2.926v-7.535l1.066 1.666 3.939 5.87h2.534v-13.2h-2.934zM177.783 215.12c-3.248 0-5.342 1.98-5.342 4.817v4.322c0 2.592 1.741 4.792 4.981 4.792A4.117 4.117 0 0 0 181 227.23l.415 1.445h1.373v-6.773h-4.785v1.925h1.914v.833a1.863 1.863 0 0 1-2.055 1.847 2.046 2.046 0 0 1-2.213-2.043v-4.714a2.013 2.013 0 0 1 2.197-2.122 1.755 1.755 0 0 1 2 1.823v.574h2.942v-.786c0-2.38-1.937-4.117-5.005-4.117zM223.755 215.474l-2.99 13.169h1.82l.691-3.23h2.848l.69 3.23h1.899l-2.99-13.192h-1.976l.008.023zm-.173 8.36l1.09-5.405 1.091 5.405h-2.18zM230.839 228.674h1.875v-5.806h3.224v-1.65h-3.224v-4.062h4.197v-1.705h-6.072zM239.186 228.674h1.875v-5.806h3.224v-1.65h-3.224v-4.062h4.197v-1.705h-6.072zM247.533 228.674h6.135v-1.705h-4.276v-4.4h3.083v-1.626h-3.083v-3.764h4.276v-1.705h-6.135zM259.67 215.2a3.433 3.433 0 0 0-2.667.985 3.444 3.444 0 0 0-1.013 2.66v6.459a3.452 3.452 0 0 0 1.01 2.667 3.44 3.44 0 0 0 2.67.994c2.494 0 3.577-1.571 3.577-3.489v-1.422h-1.68v1.383a1.853 1.853 0 0 1-1.812 1.894 1.853 1.853 0 0 1-1.89-1.815v-6.899a1.853 1.853 0 0 1 1.89-1.815 1.853 1.853 0 0 1 1.813 1.894v1.383h1.679v-1.415c.03-1.925-1.052-3.465-3.578-3.465zM265.059 217.195h2.714v11.48h1.875v-11.48h2.69v-1.72h-7.28zM273.547 228.643h.73a1.11 1.11 0 0 1-1.09 1.304v.574c1.38 0 1.976-.888 1.976-2.137v-1.98h-1.624v2.239h.008zM287.793 223.693l-.533 2.538-.533-2.515-1.805-8.242h-2.612v13.2h1.663V218.39l.557 2.515 1.757 7.77h1.844l1.796-7.77.534-2.515v10.285h1.702v-13.2h-2.612zM298.69 215.2c-2.471 0-3.68 1.626-3.68 3.763v6.223c0 2.16 1.209 3.787 3.68 3.787s3.68-1.627 3.68-3.787v-6.223c0-2.106-1.185-3.764-3.68-3.764zm1.82 10.143a1.814 1.814 0 0 1-1.812 1.815c-1 0-1.812-.813-1.812-1.815v-6.537c0-1.003.811-1.815 1.812-1.815 1 0 1.812.812 1.812 1.815v6.537zM308.363 225.68l-2.11-10.206h-1.962l3.107 13.2h1.797l3.185-13.2h-1.899zM314.498 228.674h6.135v-1.705h-4.276v-4.4h3.091v-1.626h-3.09v-3.764h4.275v-1.705h-6.135zM323.167 228.643h.73a1.11 1.11 0 0 1-1.091 1.304v.574c1.38 0 1.977-.888 1.977-2.137v-1.98h-1.624v2.239h.008zM331.929 215.474h1.883v13.192h-1.883zM342.489 224.33l-1.044-2.319-3.13-6.537h-1.522v13.2h1.781v-8.745l1.114 2.318 3.256 6.427h1.333v-13.2h-1.788zM347.282 228.674h1.875v-5.806h3.224v-1.65h-3.224v-4.062h4.197v-1.705h-6.072zM357.488 215.474h-1.859v13.2h6.033v-1.705h-4.174zM369.138 225.5c0 .996-.806 1.803-1.8 1.803-.995 0-1.8-.807-1.8-1.803v-10.026h-1.883V225.5c0 2.176 1.521 3.45 3.655 3.45s3.68-1.266 3.68-3.45v-10.026h-1.86V225.5h.008zM373.986 228.674h6.135v-1.705h-4.275v-4.4h3.09v-1.626h-3.09v-3.764h4.275v-1.705h-6.135zM388.327 224.33l-1.043-2.319-3.123-6.537h-1.53v13.2h1.781v-8.745l1.114 2.318 3.264 6.427h1.318v-13.2h-1.781zM396.62 215.2a3.433 3.433 0 0 0-2.667.985 3.444 3.444 0 0 0-1.013 2.66v6.459a3.452 3.452 0 0 0 1.01 2.667 3.44 3.44 0 0 0 2.67.994c2.494 0 3.577-1.571 3.577-3.489v-1.422h-1.671v1.383a1.853 1.853 0 0 1-1.813 1.894 1.853 1.853 0 0 1-1.89-1.815v-6.899a1.853 1.853 0 0 1 1.89-1.815 1.853 1.853 0 0 1 1.813 1.894v1.383h1.678v-1.415c0-1.925-1.09-3.465-3.585-3.465zM402.793 228.674h6.135v-1.705h-4.276v-4.4h3.091v-1.626h-3.09v-3.764h4.275v-1.705h-6.135z"/></g></svg>